<svg xmlns="http://www.w3.org/2000/svg" width="50" height="51" viewBox="0 0 50 51">
  <path fill="#1E4146" fill-rule="evenodd" d="M101.25,54.2324219 C102.480475,54.2324219 103.535152,54.6718706 104.414062,55.5507812 C105.292973,56.4296919 105.732422,57.5019468 105.732422,58.7675781 C105.732422,60.0332095 105.530275,61.2724549 105.125977,62.4853516 C104.721678,63.6982483 104.132816,64.832026 103.359375,65.8867188 C102.480464,67.0820372 101.408209,68.4179614 100.142578,69.8945312 C98.8769468,71.3359447 97.4794998,72.7509696 95.9501953,74.1396484 C94.4208908,75.5283273 92.7773525,76.8027286 91.0195312,77.9628906 C89.26171,79.0878963 87.4160253,79.9492158 85.4824219,80.546875 L85.4824219,87.9824219 C86.7480532,87.9824219 87.8203081,88.4218706 88.6992188,89.3007812 C89.5781294,90.1796919 90.0175781,91.2519468 90.0175781,92.5175781 L90.0175781,97 L91.125,97 C91.4414078,97 91.7050771,97.1054677 91.9160156,97.3164062 C92.1269542,97.5273448 92.2324219,97.791014 92.2324219,98.1074219 C92.2324219,98.4238297 92.1269542,98.6962879 91.9160156,98.9248047 C91.7050771,99.1533215 91.4414078,99.2675781 91.125,99.2675781 L70.875,99.2675781 C70.5585922,99.2675781 70.2949229,99.1533215 70.0839844,98.9248047 C69.8730458,98.6962879 69.7675781,98.4238297 69.7675781,98.1074219 C69.7675781,97.791014 69.8730458,97.5273448 70.0839844,97.3164062 C70.2949229,97.1054677 70.5585922,97 70.875,97 L71.9824219,97 L71.9824219,92.5175781 C71.9824219,91.2519468 72.4218706,90.1796919 73.3007812,89.3007812 C74.1796919,88.4218706 75.2519468,87.9824219 76.5175781,87.9824219 L76.5175781,80.546875 C74.5839747,79.9843722 72.73829,79.1230527 70.9804688,77.9628906 C69.2226475,76.8027286 67.5791092,75.5283273 66.0498047,74.1396484 C64.5205002,72.7509696 63.1230532,71.3359447 61.8574219,69.8945312 C60.5917905,68.4179614 59.5195356,67.0820372 58.640625,65.8867188 C57.8671836,64.832026 57.2783223,63.6982483 56.8740234,62.4853516 C56.4697245,61.2724549 56.2675781,60.0332095 56.2675781,58.7675781 C56.2675781,57.5019468 56.7070269,56.4296919 57.5859375,55.5507812 C58.4648481,54.6718706 59.5195251,54.2324219 60.75,54.2324219 L67.5,54.2324219 C67.5,53.001947 67.9394487,51.94727 68.8183594,51.0683594 C69.69727,50.1894487 70.751947,49.75 71.9824219,49.75 L90.0175781,49.75 C91.248053,49.75 92.30273,50.1894487 93.1816406,51.0683594 C94.0605513,51.94727 94.5,53.001947 94.5,54.2324219 L101.25,54.2324219 Z M69.7675781,54.2324219 L69.7675781,67.7324219 C69.7675781,69.2793046 70.0488253,70.7382744 70.6113281,72.109375 C71.2089874,73.4804756 72.017573,74.6757762 73.0371094,75.6953125 C74.0566457,76.7148488 75.2519463,77.5234345 76.6230469,78.1210938 C77.9941475,78.718753 79.4531173,79.0175781 81,79.0175781 C82.5468827,79.0175781 84.0058525,78.718753 85.3769531,78.1210938 C86.7480537,77.5234345 87.9433543,76.7148488 88.9628906,75.6953125 C89.982427,74.6757762 90.7910126,73.4804756 91.3886719,72.109375 C91.9511747,70.7382744 92.2324219,69.2793046 92.2324219,67.7324219 L92.2324219,54.2324219 C92.2324219,53.6347626 92.0126975,53.1162131 91.5732422,52.6767578 C91.1337869,52.2373025 90.6152374,52.0175781 90.0175781,52.0175781 L71.9824219,52.0175781 C71.3847626,52.0175781 70.8662131,52.2373025 70.4267578,52.6767578 C69.9873025,53.1162131 69.7675781,53.6347626 69.7675781,54.2324219 Z M60.4335938,64.515625 C61.2421915,65.6406306 62.3759693,67.0380776 63.8349609,68.7080078 C65.2939526,70.377938 66.9550688,71.9863204 68.8183594,73.5332031 C68.3964823,72.6542925 68.0712902,71.7314501 67.8427734,70.7646484 C67.6142567,69.7978467 67.5,68.7871146 67.5,67.7324219 L67.5,56.5 L60.75,56.5 C60.1171843,56.5 59.5810569,56.7197244 59.1416016,57.1591797 C58.7021462,57.598635 58.4824219,58.1347625 58.4824219,58.7675781 C58.4824219,59.7871145 58.6494124,60.7890576 58.9833984,61.7734375 C59.3173845,62.7578174 59.8007781,63.6718708 60.4335938,64.515625 Z M87.75,92.5175781 C87.75,91.8847625 87.5302756,91.348635 87.0908203,90.9091797 C86.651365,90.4697244 86.1152375,90.25 85.4824219,90.25 L76.5175781,90.25 C75.8847625,90.25 75.348635,90.4697244 74.9091797,90.9091797 C74.4697244,91.348635 74.25,91.8847625 74.25,92.5175781 L74.25,97 L87.75,97 L87.75,92.5175781 Z M78.7324219,87.9824219 L83.2675781,87.9824219 L83.2675781,81.0214844 C82.8808574,81.0917972 82.5029315,81.1445311 82.1337891,81.1796875 C81.7646466,81.2148439 81.3867207,81.2324219 81,81.2324219 C80.6132793,81.2324219 80.2353534,81.2148439 79.8662109,81.1796875 C79.4970685,81.1445311 79.1191426,81.0917972 78.7324219,81.0214844 L78.7324219,87.9824219 Z M101.566406,64.515625 C102.199222,63.6718708 102.682616,62.7578174 103.016602,61.7734375 C103.350588,60.7890576 103.517578,59.7871145 103.517578,58.7675781 C103.517578,58.1347625 103.297854,57.598635 102.858398,57.1591797 C102.418943,56.7197244 101.882816,56.5 101.25,56.5 L94.5,56.5 L94.5,67.7324219 C94.5,68.7871146 94.3857433,69.7978467 94.1572266,70.7646484 C93.9287098,71.7314501 93.6035177,72.6542925 93.1816406,73.5332031 C95.0449312,71.9863204 96.7060474,70.377938 98.1650391,68.7080078 C99.6240307,67.0380776 100.757808,65.6406306 101.566406,64.515625 Z M77.2091989,67.6952928 C77.0227469,66.9635839 76.9862539,66.1747848 77.1056996,65.4516934 C77.759508,61.4940025 81.8953367,59.8631612 85.2050117,61.8156158 C86.0558519,62.3177328 86.8491926,63.051596 87.3535021,63.996893 C87.8576583,64.9420362 88.038437,66.1113855 87.7004928,67.0205202 C87.3623954,67.9295012 86.4578889,68.4917859 85.5562957,68.2164911 C85.1823186,68.1023106 84.7779816,67.8884147 84.4777572,67.6414341 C84.1556063,67.3764493 83.8271688,67.0996156 83.3858788,67.0982307 C83.1968202,67.0976151 83.0105216,67.1508583 82.8392496,67.2313386 C82.2927737,67.4878598 81.9591229,67.9519679 81.9103633,68.5401049 C81.8698836,69.0291419 81.8416705,69.5757307 81.4819532,69.948279 C81.2363151,70.2029537 80.9023576,70.3314451 80.5584335,70.3808413 C78.7573938,70.6399785 77.6196691,69.3065911 77.2091989,67.6952928 M76.2063592,58.5684389 C75.1066881,59.7033391 75.6238566,61.9459111 77.2427243,61.9325384 C77.9288055,61.9270605 78.5882315,61.4103619 78.8239271,60.6937184 C79.0597675,59.9773972 78.8559422,59.1091438 78.335297,58.6124235 C77.7646733,58.0678518 76.7781419,57.9782714 76.2063592,58.5684389 M80.4466667,57.1550749 C79.3469955,58.2899509 79.864164,60.532475 81.4830317,60.5191026 C82.1691129,60.5134637 82.8285389,59.9967761 83.0642345,59.2803091 C83.3000749,58.5638421 83.0962497,57.6957683 82.5756044,57.1988975 C82.0049807,56.6544986 81.0185942,56.564759 80.4466667,57.1550749 M85.2029496,58.4994206 C84.1798139,59.2350318 84.4686445,60.9241619 85.6236672,61.3666082 C86.4820569,61.6953971 87.556357,61.1340501 87.8037761,60.2274131 C88.2501508,58.5925672 86.4416956,57.6089762 85.2029496,58.4994206 M73.8954427,63.2107834 C72.8723402,63.9463986 73.1611615,65.6356917 74.3161466,66.0779861 C75.1745084,66.406931 76.2489236,65.8455811 76.4963347,64.9389393 C76.9425448,63.3040847 75.1341485,62.3204886 73.8954427,63.2107834" transform="translate(-56 -49)"/>
</svg>
