<svg xmlns="http://www.w3.org/2000/svg" width="54" height="54" viewBox="0 0 54 54">
  <path fill="#1E4146" fill-rule="evenodd" d="M96.2070312,77.21875 C95.9257798,77.6054707 95.6621106,77.9833966 95.4160156,78.3525391 C95.1699206,78.7216815 94.9941412,79.0820295 94.8886719,79.4335938 C94.818359,79.785158 94.7919921,80.1894508 94.8095703,80.6464844 C94.8271485,81.1035179 94.8535154,81.5957005 94.8886719,82.1230469 C94.9589847,82.8613318 94.9941406,83.6083947 94.9941406,84.3642578 C94.9941406,85.120121 94.7832052,85.8320279 94.3613281,86.5 C93.9746074,87.2031285 93.447269,87.7480449 92.7792969,88.1347656 C92.1113248,88.5214863 91.4433627,88.8730453 90.7753906,89.1894531 C90.3183571,89.4003917 89.8876973,89.6113271 89.4833984,89.8222656 C89.0790995,90.0332042 88.7539075,90.2617175 88.5078125,90.5078125 C88.2265611,90.7890639 87.9892588,91.1230449 87.7958984,91.5097656 C87.6025381,91.8964863 87.4003917,92.3183571 87.1894531,92.7753906 C86.8730453,93.4433627 86.5214863,94.1201138 86.1347656,94.8056641 C85.7480449,95.4912144 85.2031285,96.0273418 84.5,96.4140625 C83.8320279,96.8007832 83.120121,96.9941406 82.3642578,96.9941406 C81.6083947,96.9941406 80.8437539,96.9589847 80.0703125,96.8886719 C79.5781225,96.8535154 79.1035179,96.8271485 78.6464844,96.8095703 C78.1894508,96.7919921 77.7675801,96.835937 77.3808594,96.9414062 C77.0644515,97.0117191 76.7216815,97.1699206 76.3525391,97.4160156 L75.1660156,98.2070312 C74.5683564,98.6289084 73.9267612,99.0332012 73.2412109,99.4199219 C72.5556606,99.8066426 71.8085978,100 71,100 C70.1914022,100 69.4443394,99.8066426 68.7587891,99.4199219 C68.0732388,99.0332012 67.4316436,98.6289084 66.8339844,98.2070312 L65.6474609,97.4160156 C65.2783185,97.1699206 64.9179705,97.0117191 64.5664062,96.9414062 C64.214842,96.835937 63.8105492,96.7919921 63.3535156,96.8095703 C62.8964821,96.8271485 62.4218775,96.8535154 61.9296875,96.8886719 C61.1562461,96.9589847 60.3916053,96.9941406 59.6357422,96.9941406 C58.879879,96.9941406 58.1679721,96.8007832 57.5,96.4140625 C56.7968715,96.0273418 56.2519551,95.4912144 55.8652344,94.8056641 C55.4785137,94.1201138 55.1269547,93.4433627 54.8105469,92.7753906 C54.5996083,92.3183571 54.3974619,91.8964863 54.2041016,91.5097656 C54.0107412,91.1230449 53.7734389,90.7890639 53.4921875,90.5078125 C53.2460925,90.2617175 52.9209005,90.0332042 52.5166016,89.8222656 C52.1123027,89.6113271 51.6816429,89.4003917 51.2246094,89.1894531 C50.5566373,88.8730453 49.8886752,88.5214863 49.2207031,88.1347656 C48.552731,87.7480449 48.0253926,87.2031285 47.6386719,86.5 C47.2167948,85.8320279 47.0058594,85.120121 47.0058594,84.3642578 C47.0058594,83.6083947 47.0410153,82.8613318 47.1113281,82.1230469 C47.1464846,81.5957005 47.1728515,81.1035179 47.1904297,80.6464844 C47.2080079,80.1894508 47.181641,79.785158 47.1113281,79.4335938 C47.0058588,79.0820295 46.8300794,78.7216815 46.5839844,78.3525391 C46.3378894,77.9833966 46.0742202,77.6054707 45.7929688,77.21875 C45.3710916,76.6210908 44.9667988,75.9707066 44.5800781,75.2675781 C44.1933574,74.5644496 44,73.8085978 44,73 C44,72.1914022 44.1933574,71.4443394 44.5800781,70.7587891 C44.9667988,70.0732388 45.3710916,69.4316436 45.7929688,68.8339844 C46.0742202,68.4472637 46.3378894,68.0693378 46.5839844,67.7001953 C46.8300794,67.3310528 47.0058588,66.9707049 47.1113281,66.6191406 C47.181641,66.2324199 47.2080079,65.8105492 47.1904297,65.3535156 C47.1728515,64.8964821 47.1464846,64.4218775 47.1113281,63.9296875 C47.0410153,63.1914026 47.0058594,62.4355507 47.0058594,61.6621094 C47.0058594,60.888668 47.2167948,60.1679721 47.6386719,59.5 C48.0253926,58.8320279 48.552731,58.2959005 49.2207031,57.8916016 C49.8886752,57.4873027 50.5566373,57.1445327 51.2246094,56.8632812 C51.6816429,56.6523427 52.1123027,56.4414073 52.5166016,56.2304688 C52.9209005,56.0195302 53.2460925,55.7734389 53.4921875,55.4921875 C53.7734389,55.2460925 54.0107412,54.9209005 54.2041016,54.5166016 C54.3974619,54.1123027 54.5996083,53.6816429 54.8105469,53.2246094 C55.1269547,52.5917937 55.4785137,51.9326206 55.8652344,51.2470703 C56.2519551,50.56152 56.7968715,50.0253926 57.5,49.6386719 C58.1679721,49.2519512 58.879879,49.0498048 59.6357422,49.0322266 C60.3916053,49.0146483 61.1562461,49.0410153 61.9296875,49.1113281 C62.4218775,49.181641 62.8964821,49.2255858 63.3535156,49.2431641 C63.8105492,49.2607423 64.2324199,49.2167974 64.6191406,49.1113281 C64.9355485,49.0058588 65.2783185,48.8388683 65.6474609,48.6103516 C66.0166034,48.3818348 66.4121073,48.1269545 66.8339844,47.8457031 C67.4316436,47.423826 68.0732388,47.0107442 68.7587891,46.6064453 C69.4443394,46.2021464 70.1914022,46 71,46 C71.8085978,46 72.5556606,46.2021464 73.2412109,46.6064453 C73.9267612,47.0107442 74.5683564,47.423826 75.1660156,47.8457031 C75.5878927,48.1269545 75.9833966,48.3818348 76.3525391,48.6103516 C76.7216815,48.8388683 77.0820295,49.0058588 77.4335938,49.1113281 C77.785158,49.2167974 78.1894508,49.2607423 78.6464844,49.2431641 C79.1035179,49.2255858 79.5781225,49.181641 80.0703125,49.1113281 C80.8437539,49.0410153 81.6083947,49.0146483 82.3642578,49.0322266 C83.120121,49.0498048 83.8320279,49.2519512 84.5,49.6386719 C85.2031285,50.0253926 85.7480449,50.56152 86.1347656,51.2470703 C86.5214863,51.9326206 86.8730453,52.5917937 87.1894531,53.2246094 C87.4003917,53.6816429 87.6025381,54.1123027 87.7958984,54.5166016 C87.9892588,54.9209005 88.2265611,55.2460925 88.5078125,55.4921875 C88.7539075,55.7734389 89.0790995,56.0195302 89.4833984,56.2304688 C89.8876973,56.4414073 90.3183571,56.6523427 90.7753906,56.8632812 C91.4433627,57.1445327 92.1113248,57.4873027 92.7792969,57.8916016 C93.447269,58.2959005 93.9746074,58.8320279 94.3613281,59.5 C94.7832052,60.1679721 94.9941406,60.888668 94.9941406,61.6621094 C94.9941406,62.4355507 94.9589847,63.1914026 94.8886719,63.9296875 C94.8535154,64.4218775 94.8271485,64.8964821 94.8095703,65.3535156 C94.7919921,65.8105492 94.818359,66.2324199 94.8886719,66.6191406 C94.9941412,66.9707049 95.1699206,67.3310528 95.4160156,67.7001953 C95.6621106,68.0693378 95.9257798,68.4472637 96.2070312,68.8339844 C96.6289084,69.4316436 97.0332012,70.0732388 97.4199219,70.7587891 C97.8066426,71.4443394 98,72.1914022 98,73 C98,73.8085978 97.8066426,74.5644496 97.4199219,75.2675781 C97.0332012,75.9707066 96.6289084,76.6210908 96.2070312,77.21875 Z M94.3613281,75.9003906 C94.7128924,75.4082007 95.0292955,74.9160181 95.3105469,74.4238281 C95.5917983,73.9316382 95.7324219,73.4570335 95.7324219,73 C95.7324219,72.5429665 95.5917983,72.0771508 95.3105469,71.6025391 C95.0292955,71.1279273 94.7128924,70.6445337 94.3613281,70.1523438 C94.0097639,69.6953102 93.6845718,69.2207056 93.3857422,68.7285156 C93.0869126,68.2363257 92.8671882,67.7265651 92.7265625,67.1992188 C92.5859368,66.6367159 92.524414,66.0654326 92.5419922,65.4853516 C92.5595704,64.9052705 92.6035153,64.3164092 92.6738281,63.71875 C92.7089846,63.1210908 92.7353515,62.5498074 92.7529297,62.0048828 C92.7705079,61.4599582 92.6738292,61.0117205 92.4628906,60.6601562 C92.2167956,60.2734356 91.8564477,59.9482435 91.3818359,59.6845703 C90.9072242,59.4208971 90.3886747,59.1484389 89.8261719,58.8671875 C89.2988255,58.6562489 88.780276,58.4101577 88.2705078,58.1289062 C87.7607396,57.8476548 87.3125019,57.5136738 86.9257812,57.1269531 C86.5039041,56.705076 86.1611341,56.2392604 85.8974609,55.7294922 C85.6337877,55.219724 85.3789075,54.7011745 85.1328125,54.1738281 C84.8867175,53.6113253 84.6230483,53.0927758 84.3417969,52.6181641 C84.0605455,52.1435523 83.7441424,51.8007823 83.3925781,51.5898438 C83.0058574,51.3789052 82.5400418,51.2734375 81.9951172,51.2734375 C81.4501926,51.2734375 80.8789092,51.3085934 80.28125,51.3789062 C79.7187472,51.4140627 79.1386749,51.4404296 78.5410156,51.4580078 C77.9433564,51.475586 77.3632841,51.4140632 76.8007812,51.2734375 C76.2734349,51.1328118 75.7724633,50.9130874 75.2978516,50.6142578 C74.8232398,50.3154282 74.3574242,50.0078141 73.9003906,49.6914062 C73.3730442,49.3046856 72.8720727,48.9707045 72.3974609,48.6894531 C71.9228492,48.4082017 71.4570335,48.2675781 71,48.2675781 C70.5429665,48.2675781 70.0771508,48.4082017 69.6025391,48.6894531 C69.1279273,48.9707045 68.6269558,49.3046856 68.0996094,49.6914062 C67.6425758,50.0078141 67.1767602,50.3154282 66.7021484,50.6142578 C66.2275367,50.9130874 65.7089872,51.1328118 65.1464844,51.2734375 C64.619138,51.4140632 64.0566436,51.475586 63.4589844,51.4580078 C62.8613251,51.4404296 62.2812528,51.4140627 61.71875,51.3789062 C61.1210908,51.3085934 60.5498074,51.2734375 60.0048828,51.2734375 C59.4599582,51.2734375 58.9941426,51.3789052 58.6074219,51.5898438 C58.2558576,51.8007823 57.9394545,52.1435523 57.6582031,52.6181641 C57.3769517,53.0927758 57.1132825,53.6113253 56.8671875,54.1738281 C56.6210925,54.7011745 56.3662123,55.219724 56.1025391,55.7294922 C55.8388659,56.2392604 55.4960959,56.705076 55.0742188,57.1269531 C54.6874981,57.5136738 54.2392604,57.8476548 53.7294922,58.1289062 C53.219724,58.4101577 52.7011745,58.6562489 52.1738281,58.8671875 C51.6113253,59.1484389 51.0927758,59.4208971 50.6181641,59.6845703 C50.1435523,59.9482435 49.7832044,60.2734356 49.5371094,60.6601562 C49.3261708,61.0117205 49.2294921,61.4599582 49.2470703,62.0048828 C49.2646485,62.5498074 49.3085934,63.1210908 49.3789062,63.71875 C49.4140627,64.3164092 49.4404296,64.9052705 49.4580078,65.4853516 C49.475586,66.0654326 49.4140632,66.6367159 49.2734375,67.1992188 C49.1328118,67.7265651 48.9130874,68.2363257 48.6142578,68.7285156 C48.3154282,69.2207056 47.9902361,69.6953102 47.6386719,70.1523438 C47.2871076,70.6445337 46.9707045,71.1279273 46.6894531,71.6025391 C46.4082017,72.0771508 46.2675781,72.5429665 46.2675781,73 C46.2675781,73.4570335 46.4082017,73.9316382 46.6894531,74.4238281 C46.9707045,74.9160181 47.2871076,75.4082007 47.6386719,75.9003906 C47.9902361,76.3574242 48.3154282,76.8320288 48.6142578,77.3242188 C48.9130874,77.8164087 49.1328118,78.3261692 49.2734375,78.8535156 C49.4140632,79.4160184 49.475586,79.9873018 49.4580078,80.5673828 C49.4404296,81.1474638 49.4140627,81.7187472 49.3789062,82.28125 C49.3085934,82.9140657 49.2646485,83.502927 49.2470703,84.0478516 C49.2294921,84.5927762 49.3261708,85.0410139 49.5371094,85.3925781 C49.7832044,85.7792988 50.1435523,86.1044909 50.6181641,86.3681641 C51.0927758,86.6318373 51.6113253,86.8867175 52.1738281,87.1328125 C52.7011745,87.3789075 53.219724,87.6425767 53.7294922,87.9238281 C54.2392604,88.2050795 54.6874981,88.5390606 55.0742188,88.9257812 C55.4960959,89.3125019 55.8388659,89.7695286 56.1025391,90.296875 L56.8671875,91.8261719 C57.1132825,92.3886747 57.3769517,92.9160132 57.6582031,93.4082031 C57.9394545,93.9003931 58.2558576,94.2519521 58.6074219,94.4628906 C58.9941426,94.6738292 59.4599582,94.7705079 60.0048828,94.7529297 C60.5498074,94.7353515 61.1210908,94.7089846 61.71875,94.6738281 C62.0000014,94.6386717 62.2900376,94.6123048 62.5888672,94.5947266 C62.8876968,94.5771483 63.1953109,94.5683594 63.5117188,94.5683594 C63.7929702,94.5683594 64.0742173,94.5771483 64.3554688,94.5947266 C64.6367202,94.6123048 64.9179673,94.6738276 65.1992188,94.7792969 C65.7265651,94.9199226 66.2275367,95.1396469 66.7021484,95.4384766 C67.1767602,95.7373062 67.6425758,96.0449203 68.0996094,96.3613281 C68.6269558,96.7128924 69.1279273,97.0380844 69.6025391,97.3369141 C70.0771508,97.6357437 70.5429665,97.7851562 71,97.7851562 C71.4570335,97.7851562 71.9228492,97.6357437 72.3974609,97.3369141 C72.8720727,97.0380844 73.3730442,96.7128924 73.9003906,96.3613281 C74.3574242,96.0449203 74.8232398,95.7373062 75.2978516,95.4384766 C75.7724633,95.1396469 76.2910128,94.9199226 76.8535156,94.7792969 C77.380862,94.6035147 77.9433564,94.524414 78.5410156,94.5419922 C79.1386749,94.5595704 79.7187472,94.6035153 80.28125,94.6738281 C80.8789092,94.7089846 81.4501926,94.7353515 81.9951172,94.7529297 C82.5400418,94.7705079 83.0058574,94.6738292 83.3925781,94.4628906 C83.7441424,94.2519521 84.0605455,93.9003931 84.3417969,93.4082031 C84.6230483,92.9160132 84.8867175,92.3886747 85.1328125,91.8261719 C85.3789075,91.3339819 85.6337877,90.8330104 85.8974609,90.3232422 C86.1611341,89.813474 86.5039041,89.3476584 86.9257812,88.9257812 C87.3125019,88.5390606 87.7607396,88.2050795 88.2705078,87.9238281 C88.780276,87.6425767 89.2988255,87.3789075 89.8261719,87.1328125 C90.3886747,86.8867175 90.9072242,86.6318373 91.3818359,86.3681641 C91.8564477,86.1044909 92.2167956,85.7792988 92.4628906,85.3925781 C92.6738292,85.0410139 92.7705079,84.5927762 92.7529297,84.0478516 C92.7353515,83.502927 92.6914066,82.9140657 92.6210938,82.28125 C92.5859373,81.7187472 92.5595704,81.1474638 92.5419922,80.5673828 C92.524414,79.9873018 92.5859368,79.4160184 92.7265625,78.8535156 C92.8671882,78.3261692 93.0869126,77.8164087 93.3857422,77.3242188 C93.6845718,76.8320288 94.0097639,76.3574242 94.3613281,75.9003906 Z M63.3960671,80.7486441 C63.0358191,79.3348926 62.96531,77.8108358 63.1960939,76.4137341 C64.4593321,68.7669886 72.4502619,65.6160025 78.844961,69.3883851 C80.488889,70.3585368 82.0217207,71.7764508 82.9961088,73.602881 C83.9702005,75.4290138 84.3194871,77.6883404 83.6665375,79.4449006 C83.0132916,81.2011635 81.2656738,82.2875669 79.5236849,81.7556634 C78.801115,81.5350527 78.0198863,81.1217794 77.4398159,80.6445825 C76.8173807,80.1325993 76.182799,79.5977226 75.3301725,79.5950467 C74.9648881,79.5938574 74.6049363,79.6967298 74.2740176,79.8522276 C73.218159,80.3478582 72.5735046,81.2445721 72.479295,82.3809251 C72.4010833,83.3258046 72.3465721,84.3818815 71.651554,85.1016906 C71.1769509,85.5937534 70.531704,85.8420147 69.8672004,85.9374541 C66.3873702,86.4381392 64.1891461,83.8618707 63.3960671,80.7486441 M61.4584576,63.1144398 C59.3337578,65.3072067 60.3329909,69.6401315 63.4608424,69.614294 C64.7864356,69.6037099 66.0605278,68.6053846 66.5159206,67.2207414 C66.9715933,65.8367207 66.5777779,64.1591482 65.5718273,63.1994236 C64.4693121,62.1472441 62.563212,61.9741637 61.4584576,63.1144398 M69.6512531,60.3836469 C67.5265533,62.5763669 68.5257864,66.9091991 71.6536379,66.8833621 C72.9792311,66.872467 74.2533233,65.8741631 74.7087161,64.4898607 C75.1643888,63.1055583 74.7705734,61.4283329 73.7646228,60.4683175 C72.6621076,59.4164718 70.7562874,59.2430838 69.6512531,60.3836469 M78.8409768,62.981088 C76.8641527,64.4023795 77.4222091,67.6659864 79.6538548,68.5208471 C81.3123694,69.1561077 83.3880493,68.0715164 83.8660934,66.3197821 C84.7285442,63.1610586 81.2343865,61.26064 78.8409768,62.981088 M56.9934827,72.0840205 C55.0167228,73.5053195 55.5747611,76.7692416 57.8063343,77.6238088 C59.464795,78.2593708 61.5406973,77.1747737 62.0187259,75.4230302 C62.8808587,72.2642901 59.3868146,70.3638614 56.9934827,72.0840205" transform="translate(-44 -46)"/>
</svg>
