<svg xmlns="http://www.w3.org/2000/svg" width="42" height="55" viewBox="0 0 42 55">
  <path fill="#1E4146" fill-rule="evenodd" d="M94.5117188,53.3378906 C94.7226573,53.4082035 94.8984368,53.5400381 95.0390625,53.7333984 C95.1796882,53.9267588 95.25,54.1464831 95.25,54.3925781 L95.25,67.8925781 C95.25,72.2519749 95.0214867,75.9960781 94.5644531,79.125 C94.1074196,82.2187655 93.1845773,84.9872925 91.7958984,87.4306641 C90.4072196,89.8740357 88.4121224,92.0976462 85.8105469,94.1015625 C83.2441278,96.1406352 79.8164277,98.2324112 75.5273438,100.376953 C75.4218745,100.41211 75.3251958,100.438476 75.2373047,100.456055 C75.1494136,100.473633 75.0703129,100.482422 75,100.482422 C74.9296871,100.482422 74.8505864,100.473633 74.7626953,100.456055 C74.6748042,100.438476 74.5781255,100.41211 74.4726562,100.376953 C70.1835723,98.2324112 66.7558722,96.1406352 64.1894531,94.1015625 C61.5878776,92.0976462 59.5927804,89.8740357 58.2041016,87.4306641 C56.8154227,84.9872925 55.8925804,82.2187655 55.4355469,79.125 C54.9785133,75.9960781 54.75,72.2519749 54.75,67.8925781 L54.75,54.3925781 C54.75,54.1464831 54.8203118,53.9267588 54.9609375,53.7333984 C55.1015632,53.5400381 55.2773427,53.4082035 55.4882812,53.3378906 L74.6308594,46.5878906 C74.7363287,46.5175778 74.8593743,46.4824219 75,46.4824219 C75.1406257,46.4824219 75.2636713,46.5175778 75.3691406,46.5878906 L94.5117188,53.3378906 Z M92.9824219,67.8925781 L92.9824219,55.1835938 L75,48.8027344 L57.0175781,55.1835938 L57.0175781,67.8925781 C57.0175781,72.0761928 57.2109356,75.6269385 57.5976562,78.5449219 C57.9843769,81.4277488 58.8017516,83.9853404 60.0498047,86.2177734 C61.2978578,88.4502065 63.1171755,90.4804596 65.5078125,92.3085938 C67.863293,94.1718843 71.0273239,96.1054587 75,98.109375 C78.9726761,96.1054587 82.136707,94.1718843 84.4921875,92.3085938 C86.8828245,90.4804596 88.7021422,88.4502065 89.9501953,86.2177734 C91.1982484,83.9853404 92.0156231,81.4277488 92.4023438,78.5449219 C92.7890644,75.6269385 92.9824219,72.0761928 92.9824219,67.8925781 Z M68.5128356,78.6155052 C68.1861058,77.3332921 68.122157,75.9510367 68.3314683,74.6839243 C69.4771722,67.7486479 76.7246092,64.8908361 82.5243322,68.3122284 C84.0153057,69.1921151 85.4055196,70.4781034 86.2892485,72.1345987 C87.1727088,73.7908244 87.489497,75.8399385 86.8972992,77.4330647 C86.3048327,79.0259213 84.7198169,80.0112434 83.1399062,79.5288293 C82.4845658,79.3287447 81.7760242,78.9539232 81.2499247,78.5211257 C80.6854022,78.0567785 80.1098633,77.5716678 79.3365669,77.5692409 C79.0052694,77.5681623 78.6788082,77.6614632 78.3786789,77.8024931 C77.4210596,78.2520093 76.8363852,79.065291 76.7509411,80.0959153 C76.6800063,80.9528813 76.6305669,81.9106986 76.0002148,82.5635352 C75.5697698,83.0098155 74.984558,83.234978 74.3818812,83.3215375 C71.2258216,83.7756378 69.2321248,81.4390707 68.5128356,78.6155052 M66.4635054,62.9609709 C64.536492,64.9497182 65.4427544,68.8794986 68.2795841,68.856065 C69.4818414,68.8464658 70.6373894,67.9410267 71.0504115,66.6852136 C71.4636874,65.4299651 71.1065134,63.9084774 70.1941585,63.0380476 C69.1942237,62.0837651 67.4654711,61.9267884 66.4635054,62.9609709 M73.8470792,60.1922567 C71.9200659,62.1809615 72.8263282,66.1106579 75.6631579,66.0872249 C76.8654152,66.0773434 78.0209632,65.1719238 78.4339853,63.9164198 C78.8472613,62.6609158 78.4900873,61.1397429 77.5777324,60.2690494 C76.5777975,59.3150696 74.8492988,59.157814 73.8470792,60.1922567 M82.2321583,62.8400264 C80.439262,64.1290779 80.9453956,67.0890321 82.9694044,67.8643547 C84.4736074,68.4405094 86.3561616,67.4568307 86.7897276,65.8680814 C87.5719341,63.0032522 84.4028801,61.2796525 82.2321583,62.8400264 M62.8502412,71.1463895 C61.0574032,72.4354478 61.5635204,75.3956879 63.5874634,76.1707443 C65.0916174,76.7471723 66.9743734,75.7634884 67.4079253,74.1747307 C68.1898435,71.3098864 65.0208925,69.5862776 62.8502412,71.1463895" transform="translate(-54 -46)"/>
</svg>
